<svg xmlns="http://www.w3.org/2000/svg" xmlns:xlink="http://www.w3.org/1999/xlink" width="500" zoomAndPan="magnify" viewBox="0 0 375 374.999991" height="500" preserveAspectRatio="xMidYMid meet" version="1.0"><path fill="#ffffff" d="M 358.726562 244.875 L 358.726562 212.398438 L 375 212.398438 L 375 97.574219 L 358.726562 97.574219 L 358.726562 65.101562 L 326.175781 65.101562 L 326.175781 32.550781 L 277.425781 32.550781 L 277.425781 0 L 195.148438 0 L 195.148438 32.550781 L 179.851562 32.550781 L 179.851562 0 L 97.574219 0 L 97.574219 32.550781 L 48.75 32.550781 L 48.75 65.101562 L 16.273438 65.101562 L 16.273438 97.574219 L 0 97.574219 L 0 212.398438 L 16.273438 212.398438 L 16.273438 244.875 L 32.550781 244.875 L 32.550781 260.175781 L 16.273438 260.175781 L 16.273438 292.726562 L 0 292.726562 L 0 342.449219 L 16.273438 342.449219 L 16.273438 375 L 98.550781 375 L 98.550781 342.449219 L 113.851562 342.449219 L 113.851562 375 L 261.148438 375 L 261.148438 342.449219 L 276.449219 342.449219 L 276.449219 375 L 358.726562 375 L 358.726562 342.449219 L 375 342.449219 L 375 292.726562 L 358.726562 292.726562 L 358.726562 260.175781 L 342.449219 260.175781 L 342.449219 244.875 Z M 358.726562 244.875 " fill-opacity="1" fill-rule="nonzero"/><path fill="#000000" d="M 350.101562 106.199219 L 350.101562 73.648438 L 317.550781 73.648438 L 317.550781 41.175781 L 268.800781 41.175781 L 268.800781 8.625 L 203.773438 8.625 L 203.773438 41.175781 L 171.226562 41.175781 L 171.226562 8.625 L 106.199219 8.625 L 106.199219 41.175781 L 57.375 41.175781 L 57.375 73.648438 L 24.898438 73.648438 L 24.898438 106.199219 L 8.625 106.199219 L 8.625 203.773438 L 24.898438 203.773438 L 24.898438 236.25 L 41.175781 236.25 L 41.175781 268.800781 L 24.898438 268.800781 L 24.898438 301.351562 L 8.625 301.351562 L 8.625 333.824219 L 24.898438 333.824219 L 24.898438 366.375 L 89.925781 366.375 L 89.925781 333.824219 L 122.476562 333.824219 L 122.476562 366.375 L 252.523438 366.375 L 252.523438 333.824219 L 285.074219 333.824219 L 285.074219 366.375 L 350.101562 366.375 L 350.101562 333.824219 L 366.375 333.824219 L 366.375 301.351562 L 350.101562 301.351562 L 350.101562 268.800781 L 333.824219 268.800781 L 333.824219 236.25 L 350.101562 236.25 L 350.101562 203.773438 L 366.375 203.773438 L 366.375 106.199219 Z M 350.101562 106.199219 " fill-opacity="1" fill-rule="nonzero"/><path fill="#7304d7" d="M 301.273438 333.824219 L 301.273438 301.273438 L 333.824219 301.273438 L 333.824219 333.824219 Z M 333.824219 106.199219 L 333.824219 203.851562 L 301.273438 203.851562 L 301.273438 301.425781 L 268.726562 301.425781 L 268.726562 236.25 L 236.175781 236.25 L 236.175781 333.898438 L 203.625 333.898438 L 203.625 236.25 L 171.074219 236.25 L 171.074219 333.898438 L 138.523438 333.898438 L 138.523438 236.25 L 105.976562 236.25 L 105.976562 301.351562 L 73.425781 301.351562 L 73.425781 203.773438 L 40.875 203.773438 L 40.875 106.199219 L 73.425781 106.199219 L 73.425781 73.648438 L 122.25 73.648438 L 122.25 41.175781 L 154.800781 41.175781 L 154.800781 73.726562 L 219.898438 73.726562 L 219.898438 41.175781 L 252.449219 41.175781 L 252.449219 73.726562 L 301.273438 73.726562 L 301.273438 106.273438 L 317.550781 106.273438 Z M 41.175781 301.351562 L 41.175781 333.898438 L 73.726562 333.898438 L 73.726562 301.351562 Z M 41.175781 301.351562 " fill-opacity="1" fill-rule="nonzero"/><path fill="#77c914" d="M 252.523438 106.199219 L 236.25 106.199219 L 236.25 138.75 L 268.800781 138.75 L 268.800781 106.199219 Z M 252.523438 106.199219 " fill-opacity="1" fill-rule="nonzero"/><path fill="#77c914" d="M 219.976562 171.226562 L 138.675781 171.226562 L 138.675781 203.773438 L 236.25 203.773438 L 236.25 171.226562 Z M 219.976562 171.226562 " fill-opacity="1" fill-rule="nonzero"/><path fill="#77c914" d="M 106.199219 106.199219 L 106.199219 138.75 L 138.675781 138.75 L 138.675781 106.199219 Z M 106.199219 106.199219 " fill-opacity="1" fill-rule="nonzero"/></svg>