<svg xmlns="http://www.w3.org/2000/svg" xmlns:xlink="http://www.w3.org/1999/xlink" width="500" zoomAndPan="magnify" viewBox="0 0 375 374.999991" height="500" preserveAspectRatio="xMidYMid meet" version="1.0"><defs><clipPath id="c88216efe2"><path d="M 10.835938 9.128906 L 367.582031 9.128906 L 367.582031 365.871094 L 10.835938 365.871094 Z M 10.835938 9.128906 " clip-rule="nonzero"/></clipPath><clipPath id="4e6e2fd94d"><path d="M 189.210938 9.128906 C 90.699219 9.128906 10.835938 88.988281 10.835938 187.5 C 10.835938 286.011719 90.699219 365.871094 189.210938 365.871094 C 287.722656 365.871094 367.582031 286.011719 367.582031 187.5 C 367.582031 88.988281 287.722656 9.128906 189.210938 9.128906 Z M 189.210938 9.128906 " clip-rule="nonzero"/></clipPath><clipPath id="6c67d5ada7"><path d="M 0.835938 0.128906 L 357.582031 0.128906 L 357.582031 356.871094 L 0.835938 356.871094 Z M 0.835938 0.128906 " clip-rule="nonzero"/></clipPath><clipPath id="feb2556de1"><path d="M 179.210938 0.128906 C 80.699219 0.128906 0.835938 79.988281 0.835938 178.5 C 0.835938 277.011719 80.699219 356.871094 179.210938 356.871094 C 277.722656 356.871094 357.582031 277.011719 357.582031 178.5 C 357.582031 79.988281 277.722656 0.128906 179.210938 0.128906 Z M 179.210938 0.128906 " clip-rule="nonzero"/></clipPath><clipPath id="6e0ce2ed99"><rect x="0" width="358" y="0" height="357"/></clipPath><clipPath id="442bf0d9d4"><path d="M 73 30 L 308 30 L 308 290 L 73 290 Z M 73 30 " clip-rule="nonzero"/></clipPath><clipPath id="2782e78f4d"><path d="M 33.339844 69.628906 L 33.339844 246.792969 C 33.339844 270.820312 52.816406 290.292969 76.839844 290.292969 L 301.578125 290.292969 C 325.605469 290.292969 345.078125 270.820312 345.078125 246.792969 L 345.078125 69.628906 C 345.078125 45.601562 325.605469 26.128906 301.578125 26.128906 L 76.839844 26.128906 C 52.816406 26.128906 33.339844 45.601562 33.339844 69.628906 Z M 33.339844 69.628906 " clip-rule="nonzero"/></clipPath><clipPath id="bfb75855b8"><path d="M 286 76 L 345.339844 76 L 345.339844 163 L 286 163 Z M 286 76 " clip-rule="nonzero"/></clipPath><clipPath id="338096fffd"><path d="M 33.339844 69.628906 L 33.339844 246.792969 C 33.339844 270.820312 52.816406 290.292969 76.839844 290.292969 L 301.578125 290.292969 C 325.605469 290.292969 345.078125 270.820312 345.078125 246.792969 L 345.078125 69.628906 C 345.078125 45.601562 325.605469 26.128906 301.578125 26.128906 L 76.839844 26.128906 C 52.816406 26.128906 33.339844 45.601562 33.339844 69.628906 Z M 33.339844 69.628906 " clip-rule="nonzero"/></clipPath><clipPath id="510915a0ed"><path d="M 34 167 L 55 167 L 55 270 L 34 270 Z M 34 167 " clip-rule="nonzero"/></clipPath><clipPath id="799a73d7b5"><path d="M 33.339844 69.628906 L 33.339844 246.792969 C 33.339844 270.820312 52.816406 290.292969 76.839844 290.292969 L 301.578125 290.292969 C 325.605469 290.292969 345.078125 270.820312 345.078125 246.792969 L 345.078125 69.628906 C 345.078125 45.601562 325.605469 26.128906 301.578125 26.128906 L 76.839844 26.128906 C 52.816406 26.128906 33.339844 45.601562 33.339844 69.628906 Z M 33.339844 69.628906 " clip-rule="nonzero"/></clipPath><clipPath id="695f9dc8d5"><path d="M 286 113 L 318 113 L 318 148 L 286 148 Z M 286 113 " clip-rule="nonzero"/></clipPath><clipPath id="bef017c156"><path d="M 33.339844 69.628906 L 33.339844 246.792969 C 33.339844 270.820312 52.816406 290.292969 76.839844 290.292969 L 301.578125 290.292969 C 325.605469 290.292969 345.078125 270.820312 345.078125 246.792969 L 345.078125 69.628906 C 345.078125 45.601562 325.605469 26.128906 301.578125 26.128906 L 76.839844 26.128906 C 52.816406 26.128906 33.339844 45.601562 33.339844 69.628906 Z M 33.339844 69.628906 " clip-rule="nonzero"/></clipPath><clipPath id="34a4a39dbb"><path d="M 62 197 L 72 197 L 72 246 L 62 246 Z M 62 197 " clip-rule="nonzero"/></clipPath><clipPath id="d4a89b8e92"><path d="M 33.339844 69.628906 L 33.339844 246.792969 C 33.339844 270.820312 52.816406 290.292969 76.839844 290.292969 L 301.578125 290.292969 C 325.605469 290.292969 345.078125 270.820312 345.078125 246.792969 L 345.078125 69.628906 C 345.078125 45.601562 325.605469 26.128906 301.578125 26.128906 L 76.839844 26.128906 C 52.816406 26.128906 33.339844 45.601562 33.339844 69.628906 Z M 33.339844 69.628906 " clip-rule="nonzero"/></clipPath><clipPath id="7783243a10"><path d="M 127 192 L 167 192 L 167 267 L 127 267 Z M 127 192 " clip-rule="nonzero"/></clipPath><clipPath id="4fc477438b"><path d="M 33.339844 69.628906 L 33.339844 246.792969 C 33.339844 270.820312 52.816406 290.292969 76.839844 290.292969 L 301.578125 290.292969 C 325.605469 290.292969 345.078125 270.820312 345.078125 246.792969 L 345.078125 69.628906 C 345.078125 45.601562 325.605469 26.128906 301.578125 26.128906 L 76.839844 26.128906 C 52.816406 26.128906 33.339844 45.601562 33.339844 69.628906 Z M 33.339844 69.628906 " clip-rule="nonzero"/></clipPath><clipPath id="faf7383ecc"><path d="M 240 164 L 254 164 L 254 213 L 240 213 Z M 240 164 " clip-rule="nonzero"/></clipPath><clipPath id="5d91c9f5b5"><path d="M 33.339844 69.628906 L 33.339844 246.792969 C 33.339844 270.820312 52.816406 290.292969 76.839844 290.292969 L 301.578125 290.292969 C 325.605469 290.292969 345.078125 270.820312 345.078125 246.792969 L 345.078125 69.628906 C 345.078125 45.601562 325.605469 26.128906 301.578125 26.128906 L 76.839844 26.128906 C 52.816406 26.128906 33.339844 45.601562 33.339844 69.628906 Z M 33.339844 69.628906 " clip-rule="nonzero"/></clipPath></defs><g clip-path="url(#c88216efe2)"><g clip-path="url(#4e6e2fd94d)"><g transform="matrix(1, 0, 0, 1, 10, 9)"><g clip-path="url(#6e0ce2ed99)"><g clip-path="url(#6c67d5ada7)"><g clip-path="url(#feb2556de1)"><path fill="#1800ad" d="M 0.835938 0.128906 L 357.582031 0.128906 L 357.582031 356.871094 L 0.835938 356.871094 Z M 0.835938 0.128906 " fill-opacity="1" fill-rule="nonzero"/></g></g></g></g></g></g><g clip-path="url(#442bf0d9d4)"><g clip-path="url(#2782e78f4d)"><path fill="#ffffff" d="M 93.359375 186.039062 C 91.582031 183.023438 89.890625 180.140625 88.164062 177.210938 C 86.421875 176.925781 84.671875 176.652344 82.925781 176.351562 C 81.351562 176.078125 80.410156 175.183594 79.753906 173.675781 C 76.96875 167.265625 75.570312 160.492188 74.777344 153.632812 C 71.78125 127.699219 75.367188 102.707031 85.925781 78.761719 C 88.101562 73.835938 90.933594 69.371094 94.46875 65.300781 C 111.015625 46.265625 131.621094 34.578125 156.699219 31.347656 C 197.203125 26.128906 236.039062 48.964844 251.730469 87.023438 C 253.121094 90.40625 254.222656 93.910156 255.367188 97.386719 C 256.175781 99.84375 256.082031 102.292969 255.078125 104.734375 C 254.800781 105.402344 254.773438 106.339844 255.011719 107.019531 C 256.695312 111.863281 258.492188 116.664062 260.226562 121.492188 C 260.597656 122.53125 261.070312 123.257812 262.292969 123.550781 C 271.515625 125.738281 278.742188 131.136719 284.984375 137.996094 C 293.078125 146.898438 298.582031 157.304688 302.316406 168.667969 C 307.308594 183.847656 308.945312 199.320312 305.847656 215.113281 C 304.296875 223.015625 301.421875 230.394531 296.339844 236.753906 C 291.738281 242.515625 285.980469 246.464844 278.546875 247.617188 C 277.519531 247.777344 276.414062 248.03125 275.433594 247.820312 C 272.945312 247.289062 270.769531 248.019531 268.480469 248.84375 C 261.269531 251.4375 254.070312 250.925781 246.976562 248.261719 C 239.550781 245.476562 233.433594 240.800781 228.199219 234.945312 C 217.703125 223.214844 211.769531 209.3125 209.109375 193.933594 C 207.078125 182.207031 207.421875 170.570312 210.964844 159.136719 C 213.5625 150.761719 217.765625 143.355469 224.675781 137.785156 C 226.933594 135.964844 229.558594 134.59375 232.050781 133.074219 C 232.832031 132.597656 233.730469 132.3125 234.78125 131.84375 C 232.882812 127.414062 231.039062 123.117188 229.183594 118.796875 C 228.472656 118.664062 227.867188 118.492188 227.253906 118.449219 C 225.449219 118.332031 224.433594 117.378906 223.894531 115.675781 C 223.269531 113.683594 222.5625 111.707031 221.765625 109.773438 C 215.101562 93.566406 205.164062 79.785156 191.277344 68.996094 C 184.511719 63.742188 177.09375 59.710938 168.597656 57.976562 C 166.855469 57.621094 165.085938 57.425781 163.332031 57.117188 C 161.507812 56.796875 159.847656 57.191406 158.167969 57.941406 C 148.382812 62.324219 140.421875 68.964844 133.933594 77.417969 C 125.265625 88.710938 120.234375 101.554688 117.988281 115.542969 C 116.433594 125.238281 116.507812 134.9375 118.019531 144.632812 C 118.195312 145.769531 118.167969 147.066406 118.734375 147.984375 C 119.941406 149.929688 119.386719 151.5625 118.40625 153.265625 C 117.203125 155.351562 115.941406 157.40625 114.832031 159.535156 C 114.4375 160.289062 114.066406 161.328125 114.273438 162.070312 C 115.074219 164.980469 116.109375 167.820312 117.121094 170.871094 C 118.835938 170.5 120.359375 170.21875 121.859375 169.84375 C 129.101562 168.03125 135.972656 169.074219 142.5625 172.449219 C 152.515625 177.546875 160.851562 184.566406 167.664062 193.414062 C 174.992188 202.925781 179.628906 213.765625 183.289062 225.074219 C 185.222656 231.0625 186.34375 237.214844 187.324219 243.441406 C 188.113281 248.4375 188.757812 253.375 188.363281 258.410156 C 187.839844 265.058594 185.53125 271.023438 181.285156 276.214844 C 176.410156 282.171875 169.972656 284.960938 162.449219 285.636719 C 161.328125 285.738281 160.132812 285.914062 159.144531 286.402344 C 151.277344 290.289062 143.195312 290.253906 134.984375 287.828125 C 125.632812 285.0625 117.714844 279.835938 110.785156 273.132812 C 96.410156 259.226562 87.359375 242.453125 84.292969 222.609375 C 83.277344 216.050781 83.371094 209.453125 84.777344 202.929688 C 86.144531 196.582031 88.8125 190.851562 93.359375 186.039062 Z M 170.449219 252.6875 C 170.25 250.183594 170.199219 247.65625 169.824219 245.183594 C 167.046875 226.96875 158.816406 211.523438 145.875 198.527344 C 141.71875 194.351562 137.042969 190.828125 131.875 187.972656 C 125.910156 184.679688 119.554688 182.671875 112.722656 182.628906 C 106.683594 182.59375 101.210938 184.148438 96.992188 188.960938 C 93.148438 193.339844 90.792969 198.378906 89.707031 204.03125 C 87.910156 213.382812 88.835938 222.601562 91.5625 231.636719 C 96.890625 249.289062 106.550781 264.023438 121.460938 275.082031 C 126.984375 279.179688 133.070312 282.148438 139.863281 283.527344 C 152.929688 286.179688 163.699219 280.085938 168.125 267.519531 C 169.816406 262.722656 170.417969 257.753906 170.449219 252.683594 Z M 112.382812 146.78125 C 112.382812 144.722656 112.5625 142.851562 112.355469 141.023438 C 111.003906 129.027344 111.792969 117.183594 114.859375 105.519531 C 119.226562 88.917969 127.257812 74.46875 140.394531 63.164062 C 162.945312 43.761719 193.214844 43.285156 216.066406 61.992188 C 226.597656 70.613281 233.996094 81.5 238.640625 94.277344 C 238.988281 95.238281 239.34375 96.195312 239.691406 97.148438 C 243.136719 97.367188 246.363281 98.121094 249.839844 97.667969 C 248.3125 92.34375 246.265625 87.546875 243.882812 82.886719 C 227.050781 49.941406 192.003906 31.640625 155.441406 36.996094 C 133.582031 40.199219 115.398438 50.476562 100.460938 66.667969 C 96.152344 71.335938 92.746094 76.515625 90.246094 82.371094 C 80.804688 104.507812 77.40625 127.546875 79.820312 151.453125 C 80.191406 155.113281 80.945312 158.734375 81.519531 162.375 C 81.738281 162.429688 81.957031 162.484375 82.175781 162.539062 C 87.464844 155.121094 94.488281 149.53125 101.546875 144.175781 C 101.484375 143.226562 101.445312 142.601562 101.402344 141.980469 C 100.410156 127.289062 100.953125 112.6875 104.117188 98.257812 C 105.332031 92.726562 106.960938 87.316406 109.539062 82.246094 C 110.210938 80.925781 110.792969 79.429688 112.910156 78.65625 C 112.84375 80.152344 112.914062 81.269531 112.71875 82.335938 C 112.359375 84.289062 111.894531 86.226562 111.382812 88.144531 C 106.734375 105.609375 105.222656 123.363281 106.550781 141.359375 C 106.925781 146.457031 106.394531 145.722656 112.382812 146.78125 Z M 231.769531 179.535156 C 231.890625 180.925781 232.019531 183.335938 232.339844 185.714844 C 233.488281 194.34375 236.167969 202.429688 241.125 209.660156 C 243.339844 212.890625 245.953125 215.742188 249.5 217.550781 C 253.777344 219.734375 257.703125 218.84375 260.664062 215.078125 C 262.582031 212.640625 263.769531 209.824219 264.324219 206.820312 C 267.167969 191.527344 264.007812 177.515625 255.046875 164.828125 C 254.03125 163.390625 252.746094 162.101562 251.410156 160.9375 C 244.601562 155 238.0625 156.503906 234.371094 164.734375 C 232.398438 169.140625 231.867188 173.777344 231.769531 179.535156 Z M 280.933594 240.894531 C 281.066406 241.078125 281.199219 241.261719 281.335938 241.445312 C 282.441406 240.925781 283.585938 240.476562 284.644531 239.875 C 288.5625 237.667969 291.566406 234.496094 294 230.757812 C 297.601562 225.226562 299.667969 219.101562 300.804688 212.65625 C 303.46875 197.53125 301.550781 182.824219 296.5 168.457031 C 292.628906 157.457031 287.007812 147.484375 278.636719 139.234375 C 273.484375 134.152344 267.613281 130.238281 260.421875 128.640625 C 258.183594 128.144531 256.746094 126.882812 255.988281 124.679688 C 253.808594 118.347656 251.550781 112.042969 249.320312 105.730469 C 249.046875 104.960938 248.757812 104.199219 248.433594 103.304688 C 246.59375 103.160156 244.855469 103.019531 242.707031 102.851562 C 243.078125 104.214844 243.292969 105.210938 243.617188 106.171875 C 244.996094 110.234375 246.441406 114.273438 247.796875 118.34375 C 248.390625 120.128906 248.9375 121.941406 249.292969 123.78125 C 249.546875 125.078125 249.777344 126.601562 248.132812 127.316406 C 246.949219 127.832031 245.882812 127.101562 245.011719 124.960938 C 243.628906 121.566406 242.359375 118.128906 241.105469 114.691406 C 239.941406 111.488281 238.851562 108.257812 237.546875 104.511719 C 235.40625 107.226562 233.5625 109.574219 231.804688 111.8125 C 234.613281 118.289062 237.3125 124.503906 239.972656 130.628906 C 240.539062 130.695312 240.847656 130.785156 241.152344 130.761719 C 248.738281 130.203125 255.652344 132.300781 262.105469 136.128906 C 267.847656 139.539062 272.648438 144.03125 276.808594 149.222656 C 283.511719 157.59375 288.160156 167.035156 291.085938 177.3125 C 295.113281 191.472656 295.960938 205.738281 292.132812 220.101562 C 290.054688 227.910156 286.484375 234.925781 280.933594 240.894531 Z M 175.484375 53.914062 C 200.890625 64.507812 216.554688 84.207031 227.175781 108.925781 C 230.011719 105.378906 232.667969 102.054688 235.328125 98.730469 C 232.496094 91.75 229.222656 85.101562 224.847656 79.042969 C 217.90625 69.421875 209.261719 61.875 198.1875 57.335938 C 190.914062 54.351562 183.367188 53.074219 175.484375 53.914062 Z M 244.558594 237.964844 C 245.082031 240.347656 246.996094 240.964844 248.726562 241.539062 C 257.859375 244.566406 266.265625 243.144531 273.777344 237.066406 C 277.671875 233.917969 280.453125 229.882812 282.570312 225.378906 C 285.875 218.359375 287.3125 210.890625 287.574219 203.195312 C 288.09375 187.929688 284.417969 173.5625 278.019531 159.808594 C 276.820312 157.226562 275.386719 156.398438 273.820312 157.234375 C 272.265625 158.066406 272.195312 159.5 273.394531 162.207031 C 274.746094 165.265625 276.164062 168.308594 277.253906 171.460938 C 281.863281 184.804688 283.957031 198.429688 281.335938 212.496094 C 280.175781 218.742188 278.003906 224.59375 273.929688 229.582031 C 269.347656 235.1875 263.46875 238.175781 256.164062 237.921875 C 253.566406 237.832031 250.976562 237.355469 248.390625 237.003906 C 247.042969 236.820312 245.691406 236.4375 244.558594 237.964844 Z M 91.566406 171.535156 C 93.46875 175.585938 95.179688 179.226562 96.765625 182.601562 C 100.800781 180.71875 104.636719 178.933594 108.53125 177.117188 C 106.472656 171.460938 104.398438 165.75 102.109375 159.453125 C 98.320312 163.792969 94.972656 167.632812 91.566406 171.535156 Z M 113.027344 152.480469 C 109.707031 151.449219 106.753906 150.410156 103.726562 149.667969 C 102.894531 149.464844 101.617188 149.882812 100.929688 150.46875 C 95.011719 155.496094 89.476562 160.90625 84.941406 167.257812 C 84.398438 168.019531 83.875 168.824219 83.507812 169.675781 C 83.15625 170.511719 83.25 171.414062 84.285156 171.726562 C 85.085938 171.972656 85.945312 172.019531 86.382812 170.976562 C 86.703125 170.210938 86.960938 169.355469 87.492188 168.753906 C 91.496094 164.203125 95.421875 159.566406 99.65625 155.234375 C 102.648438 152.167969 107.433594 152.261719 111.003906 154.929688 C 111.136719 155.027344 111.363281 154.992188 111.683594 155.039062 C 112.042969 154.355469 112.421875 153.636719 113.027344 152.480469 Z M 113.027344 152.480469 " fill-opacity="1" fill-rule="nonzero"/></g></g><g clip-path="url(#bfb75855b8)"><g clip-path="url(#338096fffd)"><path fill="#ffffff" d="M 287.238281 76.433594 C 288.285156 76.667969 289.453125 76.683594 290.359375 77.175781 C 292.742188 78.46875 295.152344 79.785156 297.308594 81.414062 C 314.796875 94.640625 327.648438 111.609375 337.101562 131.25 C 340.566406 138.441406 342.972656 146.027344 344.511719 153.867188 C 344.832031 155.503906 345.042969 157.191406 345.039062 158.851562 C 345.035156 159.835938 344.695312 160.941406 344.167969 161.777344 C 343.375 163.03125 341.855469 163 341.0625 161.742188 C 340.519531 160.886719 340.152344 159.839844 339.996094 158.832031 C 337.183594 140.90625 329.234375 125.277344 318.652344 110.808594 C 313.011719 103.09375 306.769531 95.90625 299.753906 89.414062 C 295.835938 85.789062 291.820312 82.269531 287.871094 78.679688 C 287.457031 78.300781 287.195312 77.746094 286.863281 77.273438 C 286.988281 76.992188 287.113281 76.714844 287.238281 76.433594 Z M 287.238281 76.433594 " fill-opacity="1" fill-rule="nonzero"/></g></g><g clip-path="url(#510915a0ed)"><g clip-path="url(#799a73d7b5)"><path fill="#ffffff" d="M 54.578125 269.125 C 52.007812 268.703125 51.152344 267.273438 50.4375 265.96875 C 48.332031 262.117188 46.136719 258.285156 44.464844 254.238281 C 36.28125 234.410156 33.363281 213.757812 35.484375 192.433594 C 36.054688 186.726562 37.113281 181.054688 38.179688 175.414062 C 38.539062 173.503906 39.550781 171.703125 40.394531 169.914062 C 40.742188 169.183594 41.351562 168.515625 41.988281 168.003906 C 43.144531 167.074219 44.367188 167.527344 44.417969 168.988281 C 44.46875 170.429688 44.277344 171.921875 43.925781 173.320312 C 41.328125 183.742188 40.300781 194.34375 40.195312 205.050781 C 40.027344 222.140625 43.777344 238.476562 49.816406 254.359375 C 51.226562 258.074219 52.648438 261.785156 53.976562 265.53125 C 54.328125 266.53125 54.34375 267.648438 54.582031 269.125 Z M 54.578125 269.125 " fill-opacity="1" fill-rule="nonzero"/></g></g><g clip-path="url(#695f9dc8d5)"><g clip-path="url(#bef017c156)"><path fill="#ffffff" d="M 317.925781 145.902344 C 317.453125 146.617188 317.183594 147.484375 316.65625 147.691406 C 316.132812 147.894531 315.277344 147.5625 314.703125 147.230469 C 314.089844 146.875 313.59375 146.28125 313.125 145.726562 C 312.449219 144.925781 311.753906 144.125 311.230469 143.230469 C 305.289062 133.082031 297.65625 124.4375 288.410156 117.1875 C 287.40625 116.402344 285.90625 115.4375 286.953125 113.878906 C 287.910156 112.457031 289.488281 113.117188 290.675781 113.675781 C 292.269531 114.421875 293.8125 115.355469 295.226562 116.410156 C 301.140625 120.824219 306.238281 126.054688 310.351562 132.195312 C 312.328125 135.148438 314.265625 138.136719 316.054688 141.207031 C 316.875 142.621094 317.292969 144.269531 317.925781 145.902344 Z M 317.925781 145.902344 " fill-opacity="1" fill-rule="nonzero"/></g></g><g clip-path="url(#34a4a39dbb)"><g clip-path="url(#d4a89b8e92)"><path fill="#ffffff" d="M 67.050781 197.199219 C 67.136719 198.5 67.335938 199.71875 67.273438 200.921875 C 66.628906 213.234375 67.539062 225.371094 71.003906 237.265625 C 71.609375 239.351562 71.789062 241.574219 71.984375 243.75 C 72.035156 244.3125 71.503906 245.308594 71.054688 245.433594 C 70.5625 245.570312 69.589844 245.09375 69.285156 244.601562 C 68.242188 242.921875 67.15625 241.203125 66.523438 239.351562 C 62.648438 227.996094 61.324219 216.335938 62.789062 204.40625 C 63.007812 202.660156 63.558594 200.9375 64.140625 199.269531 C 64.5 198.242188 64.9375 197.027344 67.050781 197.199219 Z M 67.050781 197.199219 " fill-opacity="1" fill-rule="nonzero"/></g></g><g clip-path="url(#7783243a10)"><g clip-path="url(#4fc477438b)"><path fill="#ffffff" d="M 164.070312 266.113281 C 162.378906 265.234375 162.144531 263.605469 161.96875 262.097656 C 159.792969 243.3125 151.847656 226.808594 141.582031 211.3125 C 138.128906 206.097656 133.859375 201.425781 129.976562 196.496094 C 129.097656 195.378906 128.269531 194.222656 127.082031 192.636719 C 128.292969 192.445312 129.046875 192.082031 129.554688 192.296875 C 130.890625 192.863281 132.292969 193.484375 133.351562 194.441406 C 135.90625 196.75 138.535156 199.050781 140.683594 201.722656 C 152.539062 216.445312 160.847656 232.980469 165.289062 251.375 C 166.066406 254.59375 166.21875 257.992188 166.390625 261.320312 C 166.484375 263.164062 166.113281 265.082031 164.066406 266.113281 Z M 164.070312 266.113281 " fill-opacity="1" fill-rule="nonzero"/></g></g><g clip-path="url(#faf7383ecc)"><g clip-path="url(#5d91c9f5b5)"><path fill="#ffffff" d="M 243.683594 164.023438 C 245.4375 165.425781 245.410156 167.023438 245.484375 168.5625 C 245.6875 172.734375 245.828125 176.90625 246.035156 181.078125 C 246.472656 189.835938 248.640625 198.175781 252.101562 206.207031 C 252.597656 207.351562 253.214844 208.523438 253.332031 209.726562 C 253.414062 210.605469 253.003906 211.839844 252.363281 212.375 C 251.957031 212.71875 250.507812 212.332031 249.910156 211.820312 C 248.996094 211.03125 248.242188 209.9375 247.714844 208.832031 C 241.769531 196.339844 239.855469 183.171875 241.292969 169.476562 C 241.414062 168.34375 241.691406 167.195312 242.121094 166.144531 C 242.429688 165.386719 243.109375 164.773438 243.683594 164.023438 Z M 243.683594 164.023438 " fill-opacity="1" fill-rule="nonzero"/></g></g></svg>