<svg xmlns="http://www.w3.org/2000/svg" xmlns:xlink="http://www.w3.org/1999/xlink" width="500" zoomAndPan="magnify" viewBox="0 0 375 374.999991" height="500" preserveAspectRatio="xMidYMid meet" version="1.0"><defs><clipPath id="274ad88437" ><path d="M 92 72 L 304 72 L 304 306 L 92 306 Z M 92 72 " clip-rule="nonzero"/></clipPath><clipPath id="b4a70d85da"><path d="M 55.695312 143.097656 L 55.695312 231.902344 C 55.695312 273.320312 89.273438 306.902344 130.695312 306.902344 L 262.5 306.902344 C 303.921875 306.902344 337.5 273.320312 337.5 231.902344 L 337.5 143.097656 C 337.5 123.207031 329.597656 104.132812 315.53125 90.066406 C 301.46875 76 282.390625 68.097656 262.5 68.097656 L 130.695312 68.097656 C 89.273438 68.097656 55.695312 101.679688 55.695312 143.097656 Z M 55.695312 143.097656 " clip-rule="nonzero"/></clipPath><clipPath id="b0eb7f8ab7"><path d="M 131.59375 69 L 261.601562 69 C 303.019531 69 336.601562 102.578125 336.601562 144 L 336.601562 231 C 336.601562 272.421875 303.019531 306 261.601562 306 L 131.59375 306 C 90.171875 306 56.59375 272.421875 56.59375 231 L 56.59375 144 C 56.59375 102.578125 90.171875 69 131.59375 69 Z M 131.59375 69 " clip-rule="nonzero"/></clipPath><clipPath id="78b96715eb"><path d="M 285 113 L 336.945312 113 L 336.945312 192 L 285 192 Z M 285 113 " clip-rule="nonzero"/></clipPath><clipPath id="b088fca42c"><path d="M 55.695312 143.097656 L 55.695312 231.902344 C 55.695312 273.320312 89.273438 306.902344 130.695312 306.902344 L 262.5 306.902344 C 303.921875 306.902344 337.5 273.320312 337.5 231.902344 L 337.5 143.097656 C 337.5 123.207031 329.597656 104.132812 315.53125 90.066406 C 301.46875 76 282.390625 68.097656 262.5 68.097656 L 130.695312 68.097656 C 89.273438 68.097656 55.695312 101.679688 55.695312 143.097656 Z M 55.695312 143.097656 " clip-rule="nonzero"/></clipPath><clipPath id="155d3086a9"><path d="M 131.59375 69 L 261.601562 69 C 303.019531 69 336.601562 102.578125 336.601562 144 L 336.601562 231 C 336.601562 272.421875 303.019531 306 261.601562 306 L 131.59375 306 C 90.171875 306 56.59375 272.421875 56.59375 231 L 56.59375 144 C 56.59375 102.578125 90.171875 69 131.59375 69 Z M 131.59375 69 " clip-rule="nonzero"/></clipPath><clipPath id="e1ed6cf5cc"><path d="M 57 195 L 75 195 L 75 288 L 57 288 Z M 57 195 " clip-rule="nonzero"/></clipPath><clipPath id="7d06bdf7f2"><path d="M 55.695312 143.097656 L 55.695312 231.902344 C 55.695312 273.320312 89.273438 306.902344 130.695312 306.902344 L 262.5 306.902344 C 303.921875 306.902344 337.5 273.320312 337.5 231.902344 L 337.5 143.097656 C 337.5 123.207031 329.597656 104.132812 315.53125 90.066406 C 301.46875 76 282.390625 68.097656 262.5 68.097656 L 130.695312 68.097656 C 89.273438 68.097656 55.695312 101.679688 55.695312 143.097656 Z M 55.695312 143.097656 " clip-rule="nonzero"/></clipPath><clipPath id="ddb6b8312e"><path d="M 131.59375 69 L 261.601562 69 C 303.019531 69 336.601562 102.578125 336.601562 144 L 336.601562 231 C 336.601562 272.421875 303.019531 306 261.601562 306 L 131.59375 306 C 90.171875 306 56.59375 272.421875 56.59375 231 L 56.59375 144 C 56.59375 102.578125 90.171875 69 131.59375 69 Z M 131.59375 69 " clip-rule="nonzero"/></clipPath><clipPath id="c965c72651"><path d="M 284 146 L 314 146 L 314 178 L 284 178 Z M 284 146 " clip-rule="nonzero"/></clipPath><clipPath id="76b6c49cc2"><path d="M 55.695312 143.097656 L 55.695312 231.902344 C 55.695312 273.320312 89.273438 306.902344 130.695312 306.902344 L 262.5 306.902344 C 303.921875 306.902344 337.5 273.320312 337.5 231.902344 L 337.5 143.097656 C 337.5 123.207031 329.597656 104.132812 315.53125 90.066406 C 301.46875 76 282.390625 68.097656 262.5 68.097656 L 130.695312 68.097656 C 89.273438 68.097656 55.695312 101.679688 55.695312 143.097656 Z M 55.695312 143.097656 " clip-rule="nonzero"/></clipPath><clipPath id="369605480b"><path d="M 131.59375 69 L 261.601562 69 C 303.019531 69 336.601562 102.578125 336.601562 144 L 336.601562 231 C 336.601562 272.421875 303.019531 306 261.601562 306 L 131.59375 306 C 90.171875 306 56.59375 272.421875 56.59375 231 L 56.59375 144 C 56.59375 102.578125 90.171875 69 131.59375 69 Z M 131.59375 69 " clip-rule="nonzero"/></clipPath><clipPath id="6db9acca7c"><path d="M 81 222 L 91 222 L 91 267 L 81 267 Z M 81 222 " clip-rule="nonzero"/></clipPath><clipPath id="e13cbe5fa0"><path d="M 55.695312 143.097656 L 55.695312 231.902344 C 55.695312 273.320312 89.273438 306.902344 130.695312 306.902344 L 262.5 306.902344 C 303.921875 306.902344 337.5 273.320312 337.5 231.902344 L 337.5 143.097656 C 337.5 123.207031 329.597656 104.132812 315.53125 90.066406 C 301.46875 76 282.390625 68.097656 262.5 68.097656 L 130.695312 68.097656 C 89.273438 68.097656 55.695312 101.679688 55.695312 143.097656 Z M 55.695312 143.097656 " clip-rule="nonzero"/></clipPath><clipPath id="3eeea6bdd8"><path d="M 131.59375 69 L 261.601562 69 C 303.019531 69 336.601562 102.578125 336.601562 144 L 336.601562 231 C 336.601562 272.421875 303.019531 306 261.601562 306 L 131.59375 306 C 90.171875 306 56.59375 272.421875 56.59375 231 L 56.59375 144 C 56.59375 102.578125 90.171875 69 131.59375 69 Z M 131.59375 69 " clip-rule="nonzero"/></clipPath><clipPath id="ec54c0fc33"><path d="M 140 218 L 177 218 L 177 285 L 140 285 Z M 140 218 " clip-rule="nonzero"/></clipPath><clipPath id="a8beeccd5a"><path d="M 55.695312 143.097656 L 55.695312 231.902344 C 55.695312 273.320312 89.273438 306.902344 130.695312 306.902344 L 262.5 306.902344 C 303.921875 306.902344 337.5 273.320312 337.5 231.902344 L 337.5 143.097656 C 337.5 123.207031 329.597656 104.132812 315.53125 90.066406 C 301.46875 76 282.390625 68.097656 262.5 68.097656 L 130.695312 68.097656 C 89.273438 68.097656 55.695312 101.679688 55.695312 143.097656 Z M 55.695312 143.097656 " clip-rule="nonzero"/></clipPath><clipPath id="1561f21e50"><path d="M 131.59375 69 L 261.601562 69 C 303.019531 69 336.601562 102.578125 336.601562 144 L 336.601562 231 C 336.601562 272.421875 303.019531 306 261.601562 306 L 131.59375 306 C 90.171875 306 56.59375 272.421875 56.59375 231 L 56.59375 144 C 56.59375 102.578125 90.171875 69 131.59375 69 Z M 131.59375 69 " clip-rule="nonzero"/></clipPath><clipPath id="ab8c196baa"><path d="M 243 192 L 255 192 L 255 237 L 243 237 Z M 243 192 " clip-rule="nonzero"/></clipPath><clipPath id="67c7c1a10d"><path d="M 55.695312 143.097656 L 55.695312 231.902344 C 55.695312 273.320312 89.273438 306.902344 130.695312 306.902344 L 262.5 306.902344 C 303.921875 306.902344 337.5 273.320312 337.5 231.902344 L 337.5 143.097656 C 337.5 123.207031 329.597656 104.132812 315.53125 90.066406 C 301.46875 76 282.390625 68.097656 262.5 68.097656 L 130.695312 68.097656 C 89.273438 68.097656 55.695312 101.679688 55.695312 143.097656 Z M 55.695312 143.097656 " clip-rule="nonzero"/></clipPath><clipPath id="0f10208584"><path d="M 131.59375 69 L 261.601562 69 C 303.019531 69 336.601562 102.578125 336.601562 144 L 336.601562 231 C 336.601562 272.421875 303.019531 306 261.601562 306 L 131.59375 306 C 90.171875 306 56.59375 272.421875 56.59375 231 L 56.59375 144 C 56.59375 102.578125 90.171875 69 131.59375 69 Z M 131.59375 69 " clip-rule="nonzero"/></clipPath><clipPath id="967f532fb2"><path d="M 55.695312 68.097656 L 337.691406 68.097656 L 337.691406 306.597656 L 55.695312 306.597656 Z M 55.695312 68.097656 " clip-rule="nonzero"/></clipPath><clipPath id="4d98566f28"><path d="M 55.695312 143.097656 L 55.695312 231.902344 C 55.695312 273.320312 89.273438 306.902344 130.695312 306.902344 L 262.5 306.902344 C 303.921875 306.902344 337.5 273.320312 337.5 231.902344 L 337.5 143.097656 C 337.5 123.207031 329.597656 104.132812 315.53125 90.066406 C 301.46875 76 282.390625 68.097656 262.5 68.097656 L 130.695312 68.097656 C 89.273438 68.097656 55.695312 101.679688 55.695312 143.097656 Z M 55.695312 143.097656 " clip-rule="nonzero"/></clipPath><clipPath id="a9a29eefc8"><path d="M 55.695312 143.097656 L 55.695312 231.894531 C 55.695312 273.316406 89.273438 306.890625 130.695312 306.890625 L 262.496094 306.890625 C 303.917969 306.890625 337.496094 273.316406 337.496094 231.894531 L 337.496094 143.097656 C 337.496094 123.207031 329.59375 104.128906 315.527344 90.066406 C 301.464844 76 282.386719 68.097656 262.496094 68.097656 L 130.695312 68.097656 C 89.273438 68.097656 55.695312 101.675781 55.695312 143.097656 Z M 55.695312 143.097656 " clip-rule="nonzero"/></clipPath></defs><g clip-path="url(#274ad88437)"><g clip-path="url(#b4a70d85da)"><g clip-path="url(#b0eb7f8ab7)"><path fill="#000000" d="M 109.992188 212.472656 C 108.386719 209.75 106.851562 207.148438 105.292969 204.503906 C 103.71875 204.246094 102.132812 204 100.554688 203.726562 C 99.132812 203.480469 98.277344 202.675781 97.683594 201.3125 C 95.164062 195.523438 93.902344 189.410156 93.183594 183.21875 C 90.476562 159.800781 93.71875 137.238281 103.269531 115.621094 C 105.234375 111.171875 107.796875 107.140625 110.996094 103.464844 C 125.964844 86.28125 144.601562 75.730469 167.289062 72.8125 C 203.929688 68.097656 239.058594 88.71875 253.253906 123.078125 C 254.515625 126.132812 255.507812 129.292969 256.542969 132.433594 C 257.277344 134.652344 257.191406 136.867188 256.28125 139.066406 C 256.03125 139.671875 256.007812 140.519531 256.222656 141.132812 C 257.746094 145.503906 259.371094 149.839844 260.9375 154.195312 C 261.277344 155.136719 261.703125 155.792969 262.808594 156.054688 C 271.152344 158.035156 277.691406 162.90625 283.335938 169.101562 C 290.65625 177.136719 295.636719 186.53125 299.015625 196.789062 C 303.53125 210.496094 305.011719 224.464844 302.207031 238.722656 C 300.804688 245.859375 298.207031 252.523438 293.609375 258.265625 C 289.445312 263.464844 284.238281 267.03125 277.515625 268.070312 C 276.582031 268.214844 275.582031 268.441406 274.695312 268.253906 C 272.445312 267.773438 270.480469 268.433594 268.40625 269.179688 C 261.882812 271.519531 255.371094 271.058594 248.953125 268.652344 C 242.238281 266.136719 236.703125 261.914062 231.96875 256.632812 C 222.472656 246.039062 217.105469 233.488281 214.699219 219.601562 C 212.863281 209.015625 213.175781 198.507812 216.378906 188.183594 C 218.726562 180.625 222.53125 173.9375 228.78125 168.90625 C 230.820312 167.261719 233.199219 166.027344 235.453125 164.65625 C 236.160156 164.226562 236.96875 163.964844 237.921875 163.542969 C 236.203125 159.546875 234.535156 155.664062 232.859375 151.761719 C 232.214844 151.644531 231.667969 151.488281 231.113281 151.453125 C 229.480469 151.34375 228.558594 150.484375 228.074219 148.949219 C 227.507812 147.148438 226.867188 145.363281 226.148438 143.617188 C 220.121094 128.988281 211.132812 116.542969 198.566406 106.800781 C 192.449219 102.058594 185.738281 98.417969 178.054688 96.855469 C 176.476562 96.535156 174.875 96.355469 173.289062 96.078125 C 171.640625 95.789062 170.136719 96.144531 168.617188 96.824219 C 159.769531 100.777344 152.566406 106.773438 146.699219 114.40625 C 138.855469 124.601562 134.304688 136.195312 132.273438 148.824219 C 130.863281 157.578125 130.933594 166.335938 132.300781 175.089844 C 132.457031 176.117188 132.4375 177.289062 132.949219 178.117188 C 134.039062 179.871094 133.539062 181.347656 132.648438 182.886719 C 131.5625 184.769531 130.421875 186.621094 129.414062 188.546875 C 129.058594 189.226562 128.726562 190.164062 128.914062 190.835938 C 129.636719 193.460938 130.574219 196.027344 131.488281 198.78125 C 133.039062 198.445312 134.417969 198.191406 135.773438 197.851562 C 142.324219 196.214844 148.539062 197.15625 154.503906 200.203125 C 163.507812 204.804688 171.042969 211.144531 177.210938 219.132812 C 183.835938 227.71875 188.03125 237.503906 191.339844 247.71875 C 193.09375 253.125 194.109375 258.679688 194.996094 264.296875 C 195.707031 268.8125 196.289062 273.269531 195.933594 277.8125 C 195.460938 283.816406 193.371094 289.203125 189.53125 293.886719 C 185.117188 299.269531 179.296875 301.785156 172.488281 302.394531 C 171.476562 302.484375 170.394531 302.644531 169.5 303.085938 C 162.382812 306.597656 155.074219 306.566406 147.648438 304.375 C 139.1875 301.878906 132.023438 297.160156 125.753906 291.105469 C 112.753906 278.554688 104.5625 263.410156 101.789062 245.492188 C 100.871094 239.570312 100.957031 233.613281 102.226562 227.722656 C 103.464844 221.992188 105.878906 216.820312 109.992188 212.476562 Z M 179.730469 272.648438 C 179.546875 270.386719 179.503906 268.105469 179.160156 265.871094 C 176.648438 249.425781 169.203125 235.484375 157.496094 223.75 C 153.738281 219.980469 149.511719 216.796875 144.835938 214.222656 C 139.441406 211.25 133.6875 209.433594 127.507812 209.398438 C 122.042969 209.367188 117.09375 210.765625 113.277344 215.109375 C 109.804688 219.066406 107.671875 223.613281 106.6875 228.71875 C 105.0625 237.164062 105.898438 245.484375 108.367188 253.644531 C 113.1875 269.582031 121.925781 282.882812 135.414062 292.867188 C 140.410156 296.566406 145.917969 299.246094 152.058594 300.492188 C 163.878906 302.886719 173.621094 297.382812 177.625 286.039062 C 179.152344 281.707031 179.699219 277.222656 179.730469 272.644531 Z M 127.203125 177.03125 C 127.203125 175.171875 127.363281 173.484375 127.175781 171.832031 C 125.953125 161.003906 126.667969 150.308594 129.441406 139.777344 C 133.390625 124.789062 140.65625 111.742188 152.542969 101.535156 C 172.9375 84.019531 200.320312 83.589844 220.992188 100.476562 C 230.519531 108.261719 237.210938 118.09375 241.414062 129.628906 C 241.730469 130.496094 242.046875 131.359375 242.363281 132.222656 C 245.480469 132.417969 248.402344 133.097656 251.542969 132.6875 C 250.160156 127.882812 248.3125 123.550781 246.15625 119.34375 C 230.929688 89.597656 199.226562 73.078125 166.152344 77.910156 C 146.378906 80.800781 129.925781 90.082031 116.414062 104.699219 C 112.519531 108.914062 109.4375 113.59375 107.179688 118.875 C 98.636719 138.863281 95.5625 159.664062 97.746094 181.25 C 98.082031 184.554688 98.761719 187.824219 99.28125 191.109375 C 99.480469 191.160156 99.675781 191.207031 99.875 191.257812 C 104.660156 184.558594 111.011719 179.511719 117.398438 174.679688 C 117.34375 173.820312 117.304688 173.257812 117.269531 172.695312 C 116.371094 159.433594 116.863281 146.25 119.726562 133.222656 C 120.824219 128.226562 122.296875 123.34375 124.628906 118.765625 C 125.234375 117.574219 125.761719 116.222656 127.679688 115.523438 C 127.617188 116.875 127.679688 117.882812 127.503906 118.847656 C 127.179688 120.609375 126.761719 122.359375 126.296875 124.09375 C 122.09375 139.859375 120.726562 155.886719 121.925781 172.136719 C 122.265625 176.738281 121.785156 176.074219 127.203125 177.027344 Z M 235.195312 206.601562 C 235.308594 207.859375 235.425781 210.03125 235.710938 212.183594 C 236.75 219.972656 239.175781 227.273438 243.664062 233.800781 C 245.664062 236.714844 248.03125 239.292969 251.238281 240.925781 C 255.105469 242.894531 258.65625 242.089844 261.335938 238.691406 C 263.070312 236.488281 264.144531 233.945312 264.648438 231.238281 C 267.21875 217.429688 264.359375 204.78125 256.253906 193.324219 C 255.335938 192.027344 254.171875 190.863281 252.964844 189.8125 C 246.804688 184.449219 240.890625 185.808594 237.554688 193.242188 C 235.769531 197.214844 235.285156 201.402344 235.195312 206.601562 Z M 279.671875 262 C 279.792969 262.167969 279.914062 262.332031 280.035156 262.5 C 281.035156 262.03125 282.070312 261.621094 283.027344 261.082031 C 286.574219 259.085938 289.289062 256.222656 291.492188 252.847656 C 294.75 247.855469 296.621094 242.324219 297.644531 236.507812 C 300.054688 222.851562 298.324219 209.574219 293.75 196.601562 C 290.253906 186.671875 285.167969 177.667969 277.59375 170.214844 C 272.933594 165.628906 267.621094 162.09375 261.117188 160.652344 C 259.089844 160.203125 257.789062 159.0625 257.105469 157.074219 C 255.136719 151.359375 253.089844 145.667969 251.074219 139.96875 C 250.828125 139.273438 250.566406 138.585938 250.273438 137.777344 C 248.609375 137.644531 247.035156 137.523438 245.09375 137.367188 C 245.425781 138.601562 245.621094 139.5 245.914062 140.367188 C 247.164062 144.035156 248.472656 147.683594 249.695312 151.355469 C 250.234375 152.964844 250.726562 154.605469 251.050781 156.265625 C 251.277344 157.4375 251.488281 158.8125 250 159.457031 C 248.929688 159.921875 247.964844 159.265625 247.175781 157.328125 C 245.925781 154.265625 244.777344 151.164062 243.644531 148.058594 C 242.589844 145.164062 241.605469 142.25 240.421875 138.867188 C 238.488281 141.320312 236.820312 143.4375 235.226562 145.460938 C 237.769531 151.304688 240.210938 156.917969 242.617188 162.449219 C 243.128906 162.507812 243.410156 162.585938 243.683594 162.566406 C 250.546875 162.0625 256.800781 163.957031 262.640625 167.414062 C 267.835938 170.492188 272.179688 174.546875 275.9375 179.234375 C 282.003906 186.792969 286.207031 195.316406 288.855469 204.597656 C 292.5 217.378906 293.265625 230.257812 289.804688 243.230469 C 287.921875 250.277344 284.691406 256.613281 279.671875 262 Z M 184.28125 93.183594 C 207.265625 102.75 221.433594 120.535156 231.042969 142.851562 C 233.605469 139.648438 236.011719 136.652344 238.414062 133.648438 C 235.855469 127.34375 232.894531 121.34375 228.9375 115.871094 C 222.65625 107.1875 214.839844 100.375 204.820312 96.273438 C 198.242188 93.582031 191.414062 92.425781 184.28125 93.183594 Z M 246.765625 259.355469 C 247.238281 261.507812 248.972656 262.0625 250.535156 262.582031 C 258.796875 265.316406 266.402344 264.03125 273.199219 258.542969 C 276.722656 255.699219 279.238281 252.058594 281.152344 247.992188 C 284.140625 241.652344 285.441406 234.910156 285.679688 227.964844 C 286.152344 214.183594 282.824219 201.207031 277.035156 188.792969 C 275.949219 186.460938 274.65625 185.710938 273.234375 186.46875 C 271.828125 187.21875 271.769531 188.511719 272.851562 190.957031 C 274.074219 193.71875 275.355469 196.464844 276.34375 199.3125 C 280.511719 211.359375 282.40625 223.664062 280.039062 236.359375 C 278.984375 242 277.023438 247.28125 273.335938 251.785156 C 269.191406 256.847656 263.875 259.546875 257.265625 259.316406 C 254.914062 259.238281 252.574219 258.804688 250.234375 258.488281 C 249.015625 258.320312 247.792969 257.976562 246.765625 259.355469 Z M 108.371094 199.378906 C 110.09375 203.039062 111.640625 206.324219 113.074219 209.371094 C 116.726562 207.671875 120.191406 206.058594 123.714844 204.417969 C 121.855469 199.3125 119.980469 194.15625 117.90625 188.46875 C 114.480469 192.390625 111.453125 195.855469 108.371094 199.378906 Z M 127.785156 182.175781 C 124.78125 181.246094 122.109375 180.304688 119.371094 179.636719 C 118.617188 179.453125 117.464844 179.832031 116.839844 180.359375 C 111.488281 184.898438 106.480469 189.785156 102.378906 195.519531 C 101.886719 196.207031 101.410156 196.929688 101.082031 197.703125 C 100.761719 198.453125 100.847656 199.269531 101.78125 199.554688 C 102.507812 199.773438 103.285156 199.816406 103.679688 198.875 C 103.972656 198.183594 104.207031 197.414062 104.683594 196.867188 C 108.308594 192.757812 111.859375 188.574219 115.6875 184.664062 C 118.398438 181.894531 122.722656 181.980469 125.953125 184.386719 C 126.074219 184.472656 126.28125 184.441406 126.570312 184.488281 C 126.894531 183.871094 127.234375 183.21875 127.785156 182.175781 Z M 127.785156 182.175781 " fill-opacity="1" fill-rule="nonzero"/></g></g></g><g clip-path="url(#78b96715eb)"><g clip-path="url(#b088fca42c)"><g clip-path="url(#155d3086a9)"><path fill="#000000" d="M 285.375 113.519531 C 286.324219 113.726562 287.378906 113.742188 288.199219 114.1875 C 290.355469 115.351562 292.535156 116.542969 294.484375 118.011719 C 310.304688 129.953125 321.929688 145.277344 330.480469 163.007812 C 333.613281 169.503906 335.789062 176.351562 337.183594 183.429688 C 337.472656 184.90625 337.664062 186.429688 337.660156 187.925781 C 337.65625 188.820312 337.351562 189.816406 336.871094 190.570312 C 336.15625 191.703125 334.78125 191.675781 334.0625 190.539062 C 333.574219 189.765625 333.242188 188.820312 333.097656 187.910156 C 330.554688 171.726562 323.367188 157.613281 313.792969 144.550781 C 308.6875 137.589844 303.042969 131.097656 296.699219 125.238281 C 293.152344 121.964844 289.519531 118.789062 285.949219 115.546875 C 285.570312 115.203125 285.335938 114.703125 285.035156 114.273438 C 285.148438 114.023438 285.261719 113.769531 285.375 113.519531 Z M 285.375 113.519531 " fill-opacity="1" fill-rule="nonzero"/></g></g></g><g clip-path="url(#e1ed6cf5cc)"><g clip-path="url(#7d06bdf7f2)"><g clip-path="url(#ddb6b8312e)"><path fill="#000000" d="M 74.914062 287.488281 C 72.585938 287.105469 71.8125 285.816406 71.164062 284.636719 C 69.261719 281.164062 67.273438 277.699219 65.765625 274.050781 C 58.359375 256.148438 55.71875 237.5 57.640625 218.246094 C 58.152344 213.09375 59.113281 207.976562 60.078125 202.878906 C 60.402344 201.15625 61.316406 199.53125 62.082031 197.914062 C 62.394531 197.257812 62.945312 196.65625 63.523438 196.191406 C 64.566406 195.351562 65.671875 195.761719 65.71875 197.082031 C 65.765625 198.378906 65.59375 199.726562 65.277344 200.992188 C 62.925781 210.402344 61.996094 219.972656 61.902344 229.640625 C 61.75 245.070312 65.140625 259.816406 70.601562 274.15625 C 71.882812 277.511719 73.167969 280.859375 74.367188 284.242188 C 74.6875 285.144531 74.699219 286.15625 74.914062 287.488281 Z M 74.914062 287.488281 " fill-opacity="1" fill-rule="nonzero"/></g></g></g><g clip-path="url(#c965c72651)"><g clip-path="url(#76b6c49cc2)"><g clip-path="url(#369605480b)"><path fill="#000000" d="M 313.132812 176.238281 C 312.707031 176.882812 312.464844 177.664062 311.988281 177.851562 C 311.515625 178.035156 310.738281 177.738281 310.21875 177.4375 C 309.664062 177.117188 309.214844 176.578125 308.789062 176.078125 C 308.179688 175.355469 307.550781 174.632812 307.078125 173.824219 C 301.703125 164.664062 294.800781 156.859375 286.433594 150.3125 C 285.527344 149.605469 284.167969 148.730469 285.117188 147.324219 C 285.984375 146.039062 287.410156 146.636719 288.484375 147.140625 C 289.925781 147.816406 291.320312 148.65625 292.601562 149.609375 C 297.953125 153.597656 302.5625 158.316406 306.28125 163.863281 C 308.070312 166.53125 309.824219 169.226562 311.441406 171.996094 C 312.1875 173.273438 312.5625 174.765625 313.136719 176.238281 Z M 313.132812 176.238281 " fill-opacity="1" fill-rule="nonzero"/></g></g></g><g clip-path="url(#6db9acca7c)"><g clip-path="url(#e13cbe5fa0)"><g clip-path="url(#3eeea6bdd8)"><path fill="#000000" d="M 86.195312 222.550781 C 86.273438 223.722656 86.453125 224.824219 86.398438 225.914062 C 85.8125 237.027344 86.636719 247.984375 89.769531 258.726562 C 90.316406 260.605469 90.480469 262.613281 90.65625 264.578125 C 90.703125 265.085938 90.222656 265.984375 89.816406 266.097656 C 89.371094 266.222656 88.492188 265.792969 88.214844 265.347656 C 87.273438 263.832031 86.289062 262.28125 85.71875 260.605469 C 82.210938 250.355469 81.011719 239.828125 82.339844 229.058594 C 82.535156 227.484375 83.035156 225.925781 83.5625 224.417969 C 83.886719 223.492188 84.285156 222.398438 86.195312 222.550781 Z M 86.195312 222.550781 " fill-opacity="1" fill-rule="nonzero"/></g></g></g><g clip-path="url(#ec54c0fc33)"><g clip-path="url(#a8beeccd5a)"><g clip-path="url(#1561f21e50)"><path fill="#000000" d="M 173.957031 284.769531 C 172.425781 283.976562 172.214844 282.507812 172.058594 281.144531 C 170.085938 264.183594 162.902344 249.28125 153.613281 235.292969 C 150.488281 230.585938 146.628906 226.367188 143.117188 221.914062 C 142.324219 220.90625 141.570312 219.863281 140.496094 218.429688 C 141.59375 218.257812 142.273438 217.929688 142.734375 218.125 C 143.941406 218.632812 145.210938 219.199219 146.167969 220.058594 C 148.480469 222.144531 150.859375 224.222656 152.804688 226.632812 C 163.527344 239.925781 171.042969 254.855469 175.058594 271.460938 C 175.765625 274.367188 175.902344 277.4375 176.054688 280.441406 C 176.140625 282.105469 175.804688 283.839844 173.957031 284.769531 Z M 173.957031 284.769531 " fill-opacity="1" fill-rule="nonzero"/></g></g></g><g clip-path="url(#ab8c196baa)"><g clip-path="url(#67c7c1a10d)"><g clip-path="url(#0f10208584)"><path fill="#000000" d="M 245.976562 192.597656 C 247.5625 193.863281 247.535156 195.308594 247.605469 196.695312 C 247.785156 200.460938 247.917969 204.230469 248.105469 207.996094 C 248.496094 215.902344 250.457031 223.433594 253.589844 230.679688 C 254.039062 231.714844 254.597656 232.773438 254.703125 233.859375 C 254.777344 234.65625 254.40625 235.765625 253.828125 236.253906 C 253.460938 236.5625 252.148438 236.210938 251.609375 235.75 C 250.78125 235.039062 250.101562 234.050781 249.625 233.050781 C 244.242188 221.773438 242.515625 209.886719 243.8125 197.519531 C 243.921875 196.5 244.175781 195.460938 244.5625 194.511719 C 244.84375 193.828125 245.457031 193.277344 245.976562 192.597656 Z M 245.976562 192.597656 " fill-opacity="1" fill-rule="nonzero"/></g></g></g><g clip-path="url(#967f532fb2)"><g clip-path="url(#4d98566f28)"><g clip-path="url(#a9a29eefc8)"><path stroke-linecap="butt" transform="matrix(0.75, 0, 0, 0.75, 55.695078, 68.099336)" fill="none" stroke-linejoin="miter" d="M 0.000313143 99.997774 L 0.000313143 218.393623 C 0.000313143 273.622796 44.771152 318.388427 100.000326 318.388427 L 275.734724 318.388427 C 330.963898 318.388427 375.734737 273.622796 375.734737 218.393623 L 375.734737 99.997774 C 375.734737 73.476937 365.198277 48.039434 346.443066 29.289431 C 327.693064 10.534221 302.255561 -0.00223904 275.734724 -0.00223904 L 100.000326 -0.00223904 C 44.771152 -0.00223904 0.000313143 44.7686 0.000313143 99.997774 Z M 0.000313143 99.997774 " stroke="#000000" stroke-width="16" stroke-opacity="1" stroke-miterlimit="4"/></g></g></g></svg>